<svg width="56" height="56" viewBox="0 0 56 56" fill="none" xmlns="http://www.w3.org/2000/svg">
<path d="M29.3636 36.5944C29.0114 36.5944 28.7215 36.4843 28.494 36.2642C28.2666 36.044 28.1528 35.7652 28.1528 35.4277C28.1528 35.2516 28.1859 35.0901 28.2519 34.9434C28.3179 34.7893 28.406 34.6572 28.5161 34.5471L30.8494 32.1917L34.9109 28.4605L30.8494 24.7403L28.5161 22.3849C28.406 22.2748 28.3179 22.1464 28.2519 21.9997C28.1859 21.8456 28.1528 21.6805 28.1528 21.5044C28.1528 21.1668 28.2666 20.888 28.494 20.6679C28.7215 20.4404 29.0114 20.3267 29.3636 20.3267C29.5177 20.3267 29.6681 20.3597 29.8148 20.4257C29.9689 20.4918 30.1157 20.5908 30.2551 20.7229L37.0792 27.558C37.3433 27.8074 37.4754 28.1083 37.4754 28.4605C37.4754 28.8201 37.3433 29.1246 37.0792 29.3741L30.2331 36.2201C29.9763 36.4696 29.6864 36.5944 29.3636 36.5944ZM18.9073 29.6932C18.5331 29.6932 18.2286 29.5795 17.9938 29.352C17.7663 29.1246 17.6526 28.8274 17.6526 28.4605C17.6526 28.101 17.7663 27.8074 17.9938 27.58C18.2286 27.3525 18.5331 27.2388 18.9073 27.2388H31.3447L35.065 27.4479C35.3731 27.4699 35.6226 27.569 35.8134 27.7451C36.0115 27.9212 36.1106 28.1597 36.1106 28.4605C36.1106 28.7687 36.0115 29.0108 35.8134 29.1869C35.6226 29.363 35.3695 29.4584 35.054 29.4731L31.3447 29.6932H18.9073Z" fill="#615B79"/>
</svg>
