<svg width="44" height="44" viewBox="0 0 44 44" fill="none" xmlns="http://www.w3.org/2000/svg">
<path d="M23.1279 28.6602C23.1279 28.9661 23.0173 29.2298 22.7959 29.4512C22.5811 29.6725 22.3174 29.7832 22.0049 29.7832C21.6924 29.7832 21.4255 29.6725 21.2041 29.4512C20.9893 29.2298 20.8818 28.9661 20.8818 28.6602V15.3496C20.8818 15.0436 20.9893 14.7799 21.2041 14.5586C21.4255 14.3307 21.6924 14.2168 22.0049 14.2168C22.3174 14.2168 22.5811 14.3307 22.7959 14.5586C23.0173 14.7799 23.1279 15.0436 23.1279 15.3496V28.6602ZM15.3447 23.1328C15.0387 23.1328 14.7751 23.0221 14.5537 22.8008C14.3324 22.5794 14.2217 22.3125 14.2217 22C14.2217 21.694 14.3324 21.4303 14.5537 21.209C14.7751 20.9876 15.0387 20.877 15.3447 20.877H28.665C28.971 20.877 29.2314 20.9876 29.4463 21.209C29.6676 21.4303 29.7783 21.694 29.7783 22C29.7783 22.3125 29.6676 22.5794 29.4463 22.8008C29.2314 23.0221 28.971 23.1328 28.665 23.1328H15.3447Z" fill="#615B79"/>
</svg>
