<svg width="27" height="27" viewBox="0 0 27 27" fill="none" xmlns="http://www.w3.org/2000/svg">
<path d="M13.6016 23.2363C11.4727 23.2363 9.51953 22.8457 7.83984 22.1035C6.81445 22.8164 5.42773 23.2363 4.16797 23.2363C3.14258 23.2363 2.74219 22.2012 3.50391 21.5469C3.97266 21.1172 4.13867 20.6973 4.13867 20.1406C4.13867 19.6719 3.94336 19.1738 3.48438 18.4707C2.58594 17.1328 2 15.4824 2 13.4902C2 7.83594 6.91211 3.76367 13.6016 3.76367C20.2812 3.76367 25.2031 7.83594 25.2031 13.4902C25.2031 19.1348 20.3008 23.2363 13.6016 23.2363ZM13.6016 21.3418C19.3145 21.3418 23.3086 18.0117 23.3086 13.4902C23.3086 8.96875 19.3145 5.6582 13.6016 5.6582C7.88867 5.6582 3.89453 8.96875 3.89453 13.4902C3.89453 14.9746 4.31445 16.3418 5.08594 17.4551C5.71094 18.3926 6.00391 19.1934 6.00391 19.9258C6.00391 20.3555 5.88672 20.6777 5.7207 21C6.16016 20.8926 6.58008 20.707 6.93164 20.4824C7.53711 20.1406 8.02539 20.0723 8.68945 20.375C10.0957 20.9902 11.7559 21.3418 13.6016 21.3418ZM9.02148 14.9551C8.21094 14.9551 7.54688 14.3008 7.54688 13.4902C7.54688 12.6797 8.21094 12.0254 9.02148 12.0254C9.8125 12.0254 10.4863 12.6797 10.4863 13.4902C10.4863 14.3008 9.82227 14.9551 9.02148 14.9551ZM13.6016 14.9551C12.791 14.9551 12.127 14.3008 12.127 13.4902C12.127 12.6797 12.791 12.0254 13.6016 12.0254C14.4023 12.0254 15.0664 12.6797 15.0664 13.4902C15.0664 14.3008 14.4023 14.9551 13.6016 14.9551ZM18.1816 14.9551C17.3711 14.9551 16.707 14.3008 16.707 13.4902C16.707 12.6797 17.3711 12.0254 18.1816 12.0254C18.9824 12.0254 19.6465 12.6797 19.6465 13.4902C19.6465 14.3008 18.9824 14.9551 18.1816 14.9551Z" fill="#615B79"/>
</svg>
