<svg width="44" height="44" viewBox="27.5089 28.9893 44 44" fill="none" xmlns="http://www.w3.org/2000/svg">
<path d="M49.5088 54.2979C48.8285 54.2979 48.2233 54.1403 47.6934 53.8252C47.1706 53.5101 46.7624 53.0732 46.4688 52.5146C46.1751 51.9489 46.0283 51.2972 46.0283 50.5596V43.7383C46.0283 43.0007 46.1751 42.3525 46.4688 41.7939C46.7624 41.2282 47.1706 40.7878 47.6934 40.4727C48.2233 40.1576 48.8285 40 49.5088 40C50.1891 40 50.7907 40.1576 51.3135 40.4727C51.8434 40.7878 52.2552 41.2282 52.5488 41.7939C52.8424 42.3525 52.9893 43.0007 52.9893 43.7383V50.5596C52.9893 51.2972 52.8424 51.9489 52.5488 52.5146C52.2552 53.0732 51.8434 53.5101 51.3135 53.8252C50.7907 54.1403 50.1891 54.2979 49.5088 54.2979ZM49.5088 58.0684C48.3988 58.0684 47.3854 57.8929 46.4688 57.542C45.5521 57.1911 44.7572 56.6934 44.084 56.0488C43.418 55.3971 42.9023 54.6273 42.5371 53.7393C42.179 52.8441 42 51.8486 42 50.7529V48.7227C42 48.4863 42.0824 48.2858 42.2471 48.1211C42.4189 47.9492 42.6266 47.8633 42.8701 47.8633C43.1064 47.8633 43.307 47.9492 43.4717 48.1211C43.6436 48.2858 43.7295 48.4863 43.7295 48.7227V50.6885C43.7295 51.8415 43.9694 52.8512 44.4492 53.7178C44.9362 54.5843 45.613 55.2575 46.4795 55.7373C47.346 56.21 48.3558 56.4463 49.5088 56.4463C50.6618 56.4463 51.6715 56.21 52.5381 55.7373C53.4046 55.2575 54.0778 54.5843 54.5576 53.7178C55.0446 52.8512 55.2881 51.8415 55.2881 50.6885V48.7227C55.2881 48.4863 55.3704 48.2858 55.5352 48.1211C55.707 47.9492 55.9147 47.8633 56.1582 47.8633C56.3945 47.8633 56.5951 47.9492 56.7598 48.1211C56.9316 48.2858 57.0176 48.4863 57.0176 48.7227V50.7529C57.0176 51.8486 56.835 52.8441 56.4697 53.7393C56.1117 54.6273 55.596 55.3971 54.9229 56.0488C54.2568 56.6934 53.4655 57.1911 52.5488 57.542C51.6322 57.8929 50.6188 58.0684 49.5088 58.0684ZM44.9111 61.9785C44.6676 61.9785 44.46 61.8962 44.2881 61.7314C44.1162 61.5667 44.0303 61.3626 44.0303 61.1191C44.0303 60.8757 44.1162 60.668 44.2881 60.4961C44.46 60.3314 44.6676 60.249 44.9111 60.249H54.1172C54.3535 60.249 54.554 60.3314 54.7188 60.4961C54.8906 60.668 54.9766 60.8757 54.9766 61.1191C54.9766 61.3626 54.8906 61.5667 54.7188 61.7314C54.554 61.8962 54.3535 61.9785 54.1172 61.9785H44.9111ZM49.5088 61.5918C49.2725 61.5918 49.0684 61.5059 48.8965 61.334C48.7318 61.1693 48.6494 60.9688 48.6494 60.7324V57.6279C48.6494 57.3988 48.7318 57.2018 48.8965 57.0371C49.0684 56.8652 49.2725 56.7793 49.5088 56.7793C49.7451 56.7793 49.9456 56.8652 50.1104 57.0371C50.2822 57.2018 50.3682 57.3988 50.3682 57.6279V60.7324C50.3682 60.9688 50.2822 61.1693 50.1104 61.334C49.9456 61.5059 49.7451 61.5918 49.5088 61.5918Z" fill="#615B79"/>
</svg>
