<svg width="20" height="20" viewBox="0 0 20 20" fill="none" xmlns="http://www.w3.org/2000/svg">
<path d="M11.711 18.2677C11.3588 18.2677 11.0689 18.1576 10.8415 17.9375C10.614 17.7174 10.5003 17.4385 10.5003 17.101C10.5003 16.9249 10.5333 16.7635 10.5993 16.6167C10.6654 16.4626 10.7534 16.3305 10.8635 16.2205L13.1969 13.8651L17.2583 10.1338L13.1969 6.41363L10.8635 4.05823C10.7534 3.94816 10.6654 3.81975 10.5993 3.673C10.5333 3.51891 10.5003 3.35381 10.5003 3.1777C10.5003 2.84017 10.614 2.56133 10.8415 2.3412C11.0689 2.11373 11.3588 2 11.711 2C11.8651 2 12.0155 2.03302 12.1622 2.09906C12.3163 2.1651 12.4631 2.26416 12.6025 2.39624L19.4266 9.23131C19.6907 9.48079 19.8228 9.78164 19.8228 10.1338C19.8228 10.4934 19.6907 10.7979 19.4266 11.0474L12.5805 17.8935C12.3237 18.143 12.0338 18.2677 11.711 18.2677ZM1.25475 11.3666C0.880525 11.3666 0.57601 11.2529 0.341203 11.0254C0.113735 10.7979 0 10.5007 0 10.1338C0 9.7743 0.113735 9.48079 0.341203 9.25332C0.57601 9.02586 0.880525 8.91212 1.25475 8.91212H13.6922L17.4124 9.12124C17.7206 9.14326 17.97 9.24232 18.1608 9.41842C18.3589 9.59453 18.458 9.833 18.458 10.1338C18.458 10.442 18.3589 10.6842 18.1608 10.8603C17.97 11.0364 17.7169 11.1318 17.4014 11.1465L13.6922 11.3666H1.25475Z" fill="#615B79"/>
</svg>
